<?xml version="1.0" encoding="utf-8" ?>
<svg baseProfile="tiny" height="100%" version="1.2" width="100%" xmlns="http://www.w3.org/2000/svg" xmlns:ev="http://www.w3.org/2001/xml-events" xmlns:xlink="http://www.w3.org/1999/xlink"><defs /><path d="M 23,254 L 21,259 L 21,272 L 24,277 L 43,288 L 55,292 L 77,304 L 77,508 L 81,521 L 88,533 L 96,542 L 104,547 L 124,554 L 493,554 L 503,551 L 521,542 L 530,530 L 539,508 L 539,304 L 561,292 L 591,278 L 595,271 L 595,260 L 593,255 L 582,246 L 568,246 L 552,255 L 549,255 L 540,260 L 539,259 L 539,239 L 549,236 L 554,231 L 557,221 L 555,214 L 548,206 L 544,204 L 72,204 L 61,213 L 59,221 L 63,233 L 71,238 L 77,239 L 77,259 L 75,260 L 46,246 L 33,246 Z M 314,265 L 334,268 L 359,277 L 380,290 L 400,310 L 414,332 L 419,344 L 425,370 L 425,394 L 421,415 L 410,440 L 405,448 L 387,469 L 361,487 L 350,492 L 322,499 L 306,500 L 287,498 L 261,490 L 235,474 L 227,467 L 207,442 L 197,421 L 191,393 L 191,371 L 195,351 L 197,351 L 197,344 L 208,322 L 217,309 L 239,288 L 246,283 L 273,270 L 301,265 Z M 223,458 Z M 392,334 Z M 231,306 Z M 302,291 L 275,297 L 249,312 L 225,340 L 226,342 L 223,347 L 218,364 L 217,375 L 215,378 L 221,413 L 238,443 L 260,461 L 270,466 L 294,473 L 314,474 L 335,470 L 337,468 L 349,465 L 356,461 L 379,441 L 395,412 L 400,381 L 399,370 L 392,347 L 392,343 L 383,332 L 377,321 L 372,317 L 373,316 L 372,317 L 351,301 L 332,294 L 313,291 Z M 342,326 L 351,326 L 361,332 L 367,339 L 367,354 L 361,363 L 353,368 L 341,368 L 337,366 L 326,353 L 326,341 L 328,337 L 336,329 Z M 442,257 L 452,257 L 458,259 L 467,268 L 471,277 L 470,288 L 466,295 L 458,302 L 449,305 L 438,303 L 426,292 L 424,288 L 424,273 L 426,269 L 435,260 Z M 85,186 L 85,191 L 87,193 L 528,193 L 531,191 L 530,181 L 526,172 L 515,161 L 504,153 L 483,143 L 459,134 L 436,129 L 434,127 L 428,127 L 426,125 L 420,125 L 397,120 L 389,120 L 385,118 L 342,115 L 340,113 L 341,95 L 352,94 L 356,92 L 361,85 L 361,77 L 359,73 L 350,68 L 262,69 L 255,75 L 254,83 L 256,88 L 260,92 L 264,94 L 275,95 L 274,115 L 247,116 L 242,118 L 233,118 L 228,120 L 218,120 L 213,122 L 201,123 L 163,132 L 145,138 L 131,145 L 116,150 L 115,152 L 113,152 L 101,161 L 88,174 Z" fill="#F26522" fill-rule="evenodd" stroke="none" /></svg>