<svg version="1.1" id="Layer_1" xmlns="http://www.w3.org/2000/svg" xmlns:xlink="http://www.w3.org/1999/xlink" x="0px" y="0px"
	 width="100%" viewBox="0 0 629 610" enable-background="new 0 0 629 610" xml:space="preserve">
<path fill="#FFFEFD" opacity="1.000000" stroke="none" 
	d="
M630.000000,8.999999 
	C630.000000,209.620789 630.000000,410.241577 630.000000,610.931152 
	C420.427185,610.931152 210.854324,610.931152 1.000000,610.931152 
	C1.000000,410.639893 1.000000,210.279648 1.465301,9.406653 
	C210.289795,8.888468 418.648987,8.882868 627.008179,8.882657 
	C628.005432,8.882656 629.002747,8.959201 630.000000,8.999999 
M75.558533,525.869507 
	C83.649185,548.820129 102.248192,562.069275 126.980408,562.094910 
	C199.468384,562.170166 271.956482,562.128540 344.444519,562.127502 
	C389.103760,562.126892 433.763458,562.226135 478.422058,562.057678 
	C496.512817,561.989502 511.566681,555.050476 522.183105,540.076538 
	C529.509338,529.743225 532.800659,517.969910 532.794006,505.268616 
	C532.761169,442.445648 532.796326,379.622620 532.660339,316.799927 
	C532.651917,312.910675 533.734070,310.890198 537.382019,309.266083 
	C550.923035,303.237671 564.304688,296.849670 577.720154,290.541443 
	C587.518066,285.934265 591.213196,276.390961 586.969543,266.887665 
	C582.729614,257.392853 571.904175,253.402924 562.181519,257.816772 
	C553.841431,261.603027 545.543884,265.482788 537.210632,269.284271 
	C535.962830,269.853516 534.622925,270.221039 533.038269,270.783966 
	C533.038269,262.524109 533.038269,254.928406 533.038269,249.262787 
	C538.421143,245.679352 543.513489,243.568878 546.718811,239.837402 
	C550.895386,234.975281 550.680237,228.699234 547.464294,222.937164 
	C544.230042,217.142334 539.236938,214.796036 532.577820,214.801788 
	C431.761200,214.888916 330.944458,214.866714 230.127747,214.880173 
	C177.136566,214.887253 124.145332,214.882324 71.154243,214.963120 
	C62.492619,214.976318 56.287601,220.773041 55.339294,229.214127 
	C54.407352,237.509552 59.534088,244.509918 67.939964,246.407181 
	C69.213799,246.694702 70.496506,246.942932 72.170273,247.291656 
	C72.170273,255.233047 72.170273,263.061340 72.170273,271.453156 
	C61.645363,266.653381 51.746208,261.950623 41.691494,257.608063 
	C32.178261,253.499390 21.711287,257.573608 17.681795,266.596130 
	C13.592477,275.752594 17.198923,285.373627 26.676535,289.975830 
	C39.862534,296.378754 53.013351,302.879150 66.426414,308.775543 
	C70.975288,310.775208 72.440979,313.078979 72.426018,317.992859 
	C72.236786,380.148712 72.191040,442.305603 72.403763,504.461243 
	C72.427353,511.353516 74.270500,518.239563 75.558533,525.869507 
M524.109924,195.768097 
	C523.185608,188.344940 519.705139,182.218903 514.486633,177.013260 
	C504.512787,167.063980 492.384521,160.507690 479.571777,155.086746 
	C440.968567,138.754181 400.292511,131.268906 358.883545,126.988358 
	C350.671631,126.139465 342.428284,125.594444 334.210083,124.910187 
	C334.210083,117.079506 334.210083,109.843704 334.210083,102.033287 
	C337.868774,102.033287 341.181549,102.254219 344.453033,101.980766 
	C349.188232,101.584961 352.539948,99.004364 354.138550,94.490807 
	C355.744965,89.955101 354.932495,85.415466 351.136017,82.745796 
	C348.093384,80.606232 343.941864,79.036354 340.256409,78.982094 
	C316.763092,78.636230 293.262512,78.774643 269.764343,78.770760 
	C266.766449,78.770271 263.740723,78.628601 260.776306,78.971313 
	C254.118942,79.740974 249.722687,84.819847 249.938141,91.138229 
	C250.151535,97.396133 254.973206,101.853752 261.877106,102.075439 
	C264.797058,102.169205 267.722473,102.091072 270.750122,102.091072 
	C270.750122,110.154465 270.750122,117.421638 270.750122,124.983398 
	C268.705475,125.239326 266.914978,125.512611 265.114655,125.680855 
	C253.015533,126.811554 240.877106,127.615921 228.820847,129.092880 
	C193.475433,133.422867 158.887466,140.919647 125.951134,154.894928 
	C112.837860,160.459076 100.345673,167.099106 90.241234,177.404037 
	C83.970451,183.799240 80.395897,191.372177 80.997597,201.196945 
	C83.421082,201.196945 85.380119,201.196686 87.339149,201.196960 
	C187.664658,201.210846 287.990173,201.240585 388.315674,201.231400 
	C431.978729,201.227402 475.641754,201.125961 519.304810,201.132111 
	C522.521423,201.132553 525.130737,200.976791 524.109924,195.768097 
z"/>
<path fill="#434343" opacity="1.000000" stroke="none" 
	d="
M630.000000,8.583332 
	C629.002747,8.959201 628.005432,8.882656 627.008179,8.882657 
	C418.648987,8.882868 210.289795,8.888468 1.465301,8.946949 
	C1.000000,6.348135 1.000000,3.696270 1.000000,1.000000 
	C24.354748,1.000000 47.709518,1.000000 71.563568,1.346447 
	C72.763412,2.157566 73.463974,2.622238 74.442276,3.373150 
	C77.205750,3.765471 79.691467,3.964138 82.177200,3.964436 
	C264.784790,3.986349 447.392395,3.992544 630.000000,4.000000 
	C630.000000,5.388889 630.000000,6.777778 630.000000,8.583332 
z"/>
<path fill="#323232" opacity="1.000000" stroke="none" 
	d="
M74.164536,3.086909 
	C73.463974,2.622238 72.763412,2.157566 72.031425,1.346447 
	C256.500000,1.000000 441.000000,0.997629 625.500000,1.041344 
	C627.000061,1.041699 628.500000,1.666664 629.531372,2.499971 
	C447.095337,2.999942 265.127991,2.999521 83.160667,3.003552 
	C80.161957,3.003618 77.163246,3.057917 74.164536,3.086909 
z"/>
<path fill="#6B6B6B" opacity="1.000000" stroke="none" 
	d="
M74.442276,3.373149 
	C77.163246,3.057917 80.161957,3.003618 83.160667,3.003552 
	C265.127991,2.999521 447.095337,2.999942 629.531372,2.999973 
	C630.000000,3.000000 630.000000,3.500000 630.000000,3.750000 
	C447.392395,3.992544 264.784790,3.986349 82.177200,3.964436 
	C79.691467,3.964138 77.205750,3.765471 74.442276,3.373149 
z"/>
<path fill="#EB6326" opacity="1.000000" stroke="none" 
	d="
M75.414154,525.499023 
	C74.270500,518.239563 72.427353,511.353516 72.403763,504.461243 
	C72.191040,442.305603 72.236786,380.148712 72.426018,317.992859 
	C72.440979,313.078979 70.975288,310.775208 66.426414,308.775543 
	C53.013351,302.879150 39.862534,296.378754 26.676535,289.975830 
	C17.198923,285.373627 13.592477,275.752594 17.681795,266.596130 
	C21.711287,257.573608 32.178261,253.499390 41.691494,257.608063 
	C51.746208,261.950623 61.645363,266.653381 72.170273,271.453156 
	C72.170273,263.061340 72.170273,255.233047 72.170273,247.291656 
	C70.496506,246.942932 69.213799,246.694702 67.939964,246.407181 
	C59.534088,244.509918 54.407352,237.509552 55.339294,229.214127 
	C56.287601,220.773041 62.492619,214.976318 71.154243,214.963120 
	C124.145332,214.882324 177.136566,214.887253 230.127747,214.880173 
	C330.944458,214.866714 431.761200,214.888916 532.577820,214.801788 
	C539.236938,214.796036 544.230042,217.142334 547.464294,222.937164 
	C550.680237,228.699234 550.895386,234.975281 546.718811,239.837402 
	C543.513489,243.568878 538.421143,245.679352 533.038269,249.262787 
	C533.038269,254.928406 533.038269,262.524109 533.038269,270.783966 
	C534.622925,270.221039 535.962830,269.853516 537.210632,269.284271 
	C545.543884,265.482788 553.841431,261.603027 562.181519,257.816772 
	C571.904175,253.402924 582.729614,257.392853 586.969543,266.887665 
	C591.213196,276.390961 587.518066,285.934265 577.720154,290.541443 
	C564.304688,296.849670 550.923035,303.237671 537.382019,309.266083 
	C533.734070,310.890198 532.651917,312.910675 532.660339,316.799927 
	C532.796326,379.622620 532.761169,442.445648 532.794006,505.268616 
	C532.800659,517.969910 529.509338,529.743225 522.183105,540.076538 
	C511.566681,555.050476 496.512817,561.989502 478.422058,562.057678 
	C433.763458,562.226135 389.103760,562.126892 344.444519,562.127502 
	C271.956482,562.128540 199.468384,562.170166 126.980408,562.094910 
	C102.248192,562.069275 83.649185,548.820129 75.414154,525.499023 
M401.290161,456.786896 
	C413.415771,438.220612 420.149872,417.839905 420.797943,395.701538 
	C422.969055,321.537048 356.562988,263.544434 283.130798,275.272217 
	C227.671204,284.129578 183.970520,335.083588 184.117157,391.183838 
	C184.190094,419.081970 192.912399,443.867096 210.801712,465.749207 
	C223.572357,481.370300 238.685745,493.507080 257.151154,500.948700 
	C310.860840,522.593811 367.910797,505.068909 401.290161,456.786896 
M416.569366,291.217102 
	C416.677582,292.040863 416.773590,292.866425 416.895905,293.688080 
	C418.776093,306.320557 429.506683,315.321106 442.344574,315.037476 
	C454.502960,314.768860 464.905518,305.396545 466.107971,293.627563 
	C467.486633,280.134003 459.819183,268.860779 447.255310,265.751404 
	C431.989502,261.973358 416.240387,273.976715 416.569366,291.217102 
z"/>
<path fill="#EA6326" opacity="1.000000" stroke="none" 
	d="
M524.152344,196.217712 
	C525.130737,200.976791 522.521423,201.132553 519.304810,201.132111 
	C475.641754,201.125961 431.978729,201.227402 388.315674,201.231400 
	C287.990173,201.240585 187.664658,201.210846 87.339149,201.196960 
	C85.380119,201.196686 83.421082,201.196945 80.997597,201.196945 
	C80.395897,191.372177 83.970451,183.799240 90.241234,177.404037 
	C100.345673,167.099106 112.837860,160.459076 125.951134,154.894928 
	C158.887466,140.919647 193.475433,133.422867 228.820847,129.092880 
	C240.877106,127.615921 253.015533,126.811554 265.114655,125.680855 
	C266.914978,125.512611 268.705475,125.239326 270.750122,124.983398 
	C270.750122,117.421638 270.750122,110.154465 270.750122,102.091072 
	C267.722473,102.091072 264.797058,102.169205 261.877106,102.075439 
	C254.973206,101.853752 250.151535,97.396133 249.938141,91.138229 
	C249.722687,84.819847 254.118942,79.740974 260.776306,78.971313 
	C263.740723,78.628601 266.766449,78.770271 269.764343,78.770760 
	C293.262512,78.774643 316.763092,78.636230 340.256409,78.982094 
	C343.941864,79.036354 348.093384,80.606232 351.136017,82.745796 
	C354.932495,85.415466 355.744965,89.955101 354.138550,94.490807 
	C352.539948,99.004364 349.188232,101.584961 344.453033,101.980766 
	C341.181549,102.254219 337.868774,102.033287 334.210083,102.033287 
	C334.210083,109.843704 334.210083,117.079506 334.210083,124.910187 
	C342.428284,125.594444 350.671631,126.139465 358.883545,126.988358 
	C400.292511,131.268906 440.968567,138.754181 479.571777,155.086746 
	C492.384521,160.507690 504.512787,167.063980 514.486633,177.013260 
	C519.705139,182.218903 523.185608,188.344940 524.152344,196.217712 
z"/>
<path fill="#FEFBF7" opacity="1.000000" stroke="none" 
	d="
M401.087769,457.085938 
	C367.910797,505.068909 310.860840,522.593811 257.151154,500.948700 
	C238.685745,493.507080 223.572357,481.370300 210.801712,465.749207 
	C192.912399,443.867096 184.190094,419.081970 184.117157,391.183838 
	C183.970520,335.083588 227.671204,284.129578 283.130798,275.272217 
	C356.562988,263.544434 422.969055,321.537048 420.797943,395.701538 
	C420.149872,417.839905 413.415771,438.220612 401.087769,457.085938 
M390.897766,375.746307 
	C382.511200,328.259766 337.546783,297.098785 291.528107,302.780914 
	C238.671967,309.307343 202.599762,360.386566 214.620865,412.369049 
	C224.809235,456.426300 267.289429,486.067596 313.154602,481.122620 
	C363.685852,475.674591 400.531250,426.215942 390.897766,375.746307 
z"/>
<path fill="#FEFAF7" opacity="1.000000" stroke="none" 
	d="
M416.545746,290.810394 
	C416.240387,273.976715 431.989502,261.973358 447.255310,265.751404 
	C459.819183,268.860779 467.486633,280.134003 466.107971,293.627563 
	C464.905518,305.396545 454.502960,314.768860 442.344574,315.037476 
	C429.506683,315.321106 418.776093,306.320557 416.895905,293.688080 
	C416.773590,292.866425 416.677582,292.040863 416.545746,290.810394 
z"/>
<path fill="#EA6327" opacity="1.000000" stroke="none" 
	d="
M390.959290,376.173431 
	C400.531250,426.215942 363.685852,475.674591 313.154602,481.122620 
	C267.289429,486.067596 224.809235,456.426300 214.620865,412.369049 
	C202.599762,360.386566 238.671967,309.307343 291.528107,302.780914 
	C337.546783,297.098785 382.511200,328.259766 390.959290,376.173431 
M358.546539,341.156921 
	C363.792969,342.116028 365.285309,336.964905 369.539703,334.529083 
	C367.530212,331.948608 365.195312,330.133911 362.832458,328.356354 
	C358.865936,325.372314 356.347046,328.738007 353.938751,330.797974 
	C351.410339,332.960693 351.900879,335.286530 354.957275,337.090332 
	C355.843475,337.613312 356.151398,339.116180 356.050690,340.024445 
	C354.504517,339.053070 353.021423,337.958252 351.402008,337.130096 
	C339.979767,331.289062 326.327637,335.837982 320.917664,347.238739 
	C315.614929,358.413483 321.066956,372.345917 332.666199,377.261719 
	C344.345032,382.211182 357.453461,376.517120 362.157959,364.564240 
	C365.587616,355.850433 362.987762,348.347229 358.546539,341.156921 
M386.681274,379.360901 
	C385.454193,374.907257 384.227081,370.453644 383.281219,365.361420 
	C386.315247,361.209625 383.288727,357.867676 381.685242,354.442078 
	C379.288361,349.321686 374.099609,348.669739 370.609619,353.061310 
	C365.014648,360.101746 362.834808,368.707489 359.450439,377.393799 
	C357.181702,381.526886 353.537323,383.095734 348.839081,382.238983 
	C343.208344,379.512085 334.777618,381.895752 331.173523,387.000000 
	C327.921173,387.650299 324.668823,388.300598 321.416473,388.950867 
	C321.526550,386.643738 322.429382,385.777527 322.651093,384.762543 
	C323.353363,381.547913 324.966827,377.895172 324.057373,375.124207 
	C322.875122,371.521881 319.399597,370.321716 314.979523,371.664307 
	C310.427856,373.046844 308.012024,370.109131 306.832031,365.424927 
	C305.647278,360.721893 307.143768,359.126923 311.509247,358.586212 
	C313.005920,358.400787 314.372955,357.168427 316.232819,356.185150 
	C314.978149,354.342590 313.405762,352.982056 313.105988,351.382965 
	C312.586273,348.610657 312.195190,345.491364 312.981506,342.889771 
	C313.735687,340.394562 316.200562,339.934692 319.183075,340.727295 
	C323.087921,341.764984 325.160980,339.351685 326.122833,335.490265 
	C326.525055,333.875732 328.926788,331.196625 329.280884,331.367065 
	C334.616272,333.934998 338.374054,329.615204 342.783691,328.514801 
	C347.653748,327.299530 349.222900,323.077484 347.247589,318.438049 
	C345.574921,314.509399 340.204559,312.677368 336.349731,313.379395 
	C330.481232,314.448120 324.833038,315.800232 320.539154,309.410919 
	C319.478424,307.832489 315.825745,307.373077 313.397339,307.448883 
	C304.801544,307.717346 296.222229,308.484283 287.630005,308.935028 
	C286.573029,308.990448 285.449554,308.340790 284.401825,307.908844 
	C280.499542,306.300049 273.308197,308.872681 270.771820,312.258942 
	C269.299408,314.224762 267.174866,316.068817 264.940369,317.020905 
	C260.277008,319.007874 254.750305,319.471619 250.663223,322.191467 
	C244.380478,326.372467 236.120743,330.037781 238.778564,340.492920 
	C239.013321,341.416351 237.465195,343.141724 236.356812,343.983002 
	C234.253860,345.579071 231.659225,346.555328 229.655579,348.247101 
	C227.198105,350.322083 224.499405,352.524475 223.024719,355.272644 
	C218.660721,363.405243 223.656769,371.218262 224.110550,379.610779 
	C222.927963,380.466888 221.390121,382.220642 219.494186,382.797546 
	C216.874649,383.594604 214.774292,384.137360 214.963089,387.529053 
	C215.144043,390.779816 214.182388,394.257111 219.024292,395.305786 
	C220.409302,395.605743 222.434616,397.918945 222.347610,399.183899 
	C221.975052,404.600189 221.488892,410.139404 219.940353,415.302765 
	C218.695602,419.453186 219.148666,423.049316 223.263184,425.699951 
	C224.591629,424.817566 225.920090,423.935181 227.118683,423.139038 
	C234.009033,427.742340 234.740692,433.731201 232.650345,440.819733 
	C231.454773,444.873993 237.283600,451.668640 241.156250,451.477295 
	C245.052002,451.284760 248.968292,451.260681 252.860321,451.460388 
	C253.591782,451.497925 254.664276,452.843109 254.865784,453.744415 
	C255.440430,456.314758 255.792618,458.957733 255.967453,461.589722 
	C256.303589,466.650177 265.379211,473.842682 269.857788,471.682404 
	C277.358154,468.064453 282.334076,472.921234 288.069427,475.713715 
	C290.498444,476.896393 292.959076,478.652985 295.502441,478.842010 
	C303.093475,479.406097 310.454071,479.216492 317.421326,474.625244 
	C322.922150,471.000336 329.325287,467.963898 336.380066,471.829376 
	C336.935394,472.133636 338.112091,471.303894 339.748077,470.990173 
	C343.498718,468.660126 347.249329,466.330078 351.546631,463.519684 
	C352.742126,457.015991 355.840057,454.214111 362.885040,452.922821 
	C364.003204,452.717865 364.965607,451.663116 366.591705,450.716095 
	C368.393250,448.810730 370.194794,446.905365 372.263763,444.373718 
	C371.829437,442.553955 371.068146,440.737976 371.047089,438.913391 
	C371.023071,436.830566 370.964233,434.114258 372.158661,432.790009 
	C374.304810,430.410767 377.478394,428.991394 380.015198,426.917175 
	C381.251312,425.906403 382.019806,424.323761 383.630463,422.667969 
	C384.086975,420.111969 384.543488,417.556000 385.000000,414.065887 
	C385.666687,407.710999 386.333344,401.356110 387.750641,394.905548 
	C390.260620,392.472198 389.803284,383.390778 386.681274,379.360901 
z"/>
<path fill="#EB6023" opacity="1.000000" stroke="none" 
	d="
M383.000000,423.000000 
	C382.019806,424.323761 381.251312,425.906403 380.015198,426.917175 
	C377.478394,428.991394 374.304810,430.410767 372.158661,432.790009 
	C370.964233,434.114258 371.023071,436.830566 371.047089,438.913391 
	C371.068146,440.737976 371.829437,442.553955 371.738159,444.687439 
	C367.014771,444.863861 365.753815,447.277893 366.000000,451.001221 
	C364.965607,451.663116 364.003204,452.717865 362.885040,452.922821 
	C355.840057,454.214111 352.742126,457.015991 350.902039,463.754944 
	C348.071716,464.396729 345.886017,464.803284 343.700317,465.209808 
	C343.747437,465.654572 343.794586,466.099365 343.841736,466.544128 
	C342.555542,466.038513 341.269348,465.532928 339.000000,464.640869 
	C339.000000,467.260101 339.000000,469.130676 339.000000,471.001221 
	C338.112091,471.303894 336.935394,472.133636 336.380066,471.829376 
	C329.325287,467.963898 322.922150,471.000336 317.421326,474.625244 
	C310.454071,479.216492 303.093475,479.406097 295.502441,478.842010 
	C292.959076,478.652985 290.498444,476.896393 288.069427,475.713715 
	C282.334076,472.921234 277.358154,468.064453 269.857788,471.682404 
	C265.379211,473.842682 256.303589,466.650177 255.967453,461.589722 
	C255.792618,458.957733 255.440430,456.314758 254.865784,453.744415 
	C254.664276,452.843109 253.591782,451.497925 252.860321,451.460388 
	C248.968292,451.260681 245.052002,451.284760 241.156250,451.477295 
	C237.283600,451.668640 231.454773,444.873993 232.650345,440.819733 
	C234.740692,433.731201 234.009033,427.742340 227.118683,423.139038 
	C225.920090,423.935181 224.591629,424.817566 223.262726,425.700256 
	C219.148666,423.049316 218.695602,419.453186 219.940353,415.302765 
	C221.488892,410.139404 221.975052,404.600189 222.347610,399.183899 
	C222.434616,397.918945 220.409302,395.605743 219.024292,395.305786 
	C214.182388,394.257111 215.144043,390.779816 214.963089,387.529053 
	C214.774292,384.137360 216.874649,383.594604 219.494186,382.797546 
	C221.390121,382.220642 222.927963,380.466888 224.110550,379.610779 
	C223.656769,371.218262 218.660721,363.405243 223.024719,355.272644 
	C224.499405,352.524475 227.198105,350.322083 229.655579,348.247101 
	C231.659225,346.555328 234.253860,345.579071 236.356812,343.983002 
	C237.465195,343.141724 239.013321,341.416351 238.778564,340.492920 
	C236.120743,330.037781 244.380478,326.372467 250.663223,322.191467 
	C254.750305,319.471619 260.277008,319.007874 264.940369,317.020905 
	C267.174866,316.068817 269.299408,314.224762 270.771820,312.258942 
	C273.308197,308.872681 280.499542,306.300049 284.401825,307.908844 
	C285.449554,308.340790 286.573029,308.990448 287.630005,308.935028 
	C296.222229,308.484283 304.801544,307.717346 313.397339,307.448883 
	C315.825745,307.373077 319.478424,307.832489 320.539154,309.410919 
	C324.833038,315.800232 330.481232,314.448120 336.349731,313.379395 
	C340.204559,312.677368 345.574921,314.509399 347.247589,318.438049 
	C349.222900,323.077484 347.653748,327.299530 342.783691,328.514801 
	C338.374054,329.615204 334.616272,333.934998 329.280884,331.367065 
	C328.926788,331.196625 326.525055,333.875732 326.122833,335.490265 
	C325.160980,339.351685 323.087921,341.764984 319.183075,340.727295 
	C316.200562,339.934692 313.735687,340.394562 312.981506,342.889771 
	C312.195190,345.491364 312.586273,348.610657 313.105988,351.382965 
	C313.405762,352.982056 314.978149,354.342590 316.232819,356.185150 
	C314.372955,357.168427 313.005920,358.400787 311.509247,358.586212 
	C307.143768,359.126923 305.647278,360.721893 306.832031,365.424927 
	C308.012024,370.109131 310.427856,373.046844 314.979523,371.664307 
	C319.399597,370.321716 322.875122,371.521881 324.057373,375.124207 
	C324.966827,377.895172 323.353363,381.547913 322.651093,384.762543 
	C322.429382,385.777527 321.526550,386.643738 321.416473,388.950867 
	C324.668823,388.300598 327.921173,387.650299 331.586182,387.388977 
	C330.655823,390.584351 329.312805,393.390747 327.969757,396.197144 
	C328.416626,396.607239 328.863464,397.017365 329.310303,397.427490 
	C331.942047,395.536835 334.573792,393.646210 337.555145,391.504425 
	C338.699799,391.686798 340.935944,391.391144 342.169037,392.365234 
	C345.491852,394.990143 348.108917,392.588074 349.880676,390.946808 
	C350.854370,390.044861 349.569397,386.696655 349.287201,384.453400 
	C349.225708,383.964600 349.097473,383.484253 349.000000,383.000000 
	C353.537323,383.095734 357.181702,381.526886 360.103210,377.202667 
	C364.639709,378.741364 364.773468,381.194244 360.747437,385.658630 
	C357.032867,389.777588 352.910889,393.529663 349.209900,397.659760 
	C348.548340,398.397980 348.502472,400.684387 349.137848,401.406799 
	C351.286530,403.849915 351.369141,405.712860 349.360962,408.415009 
	C348.274841,409.876465 348.246765,412.418549 348.390289,414.426758 
	C348.578918,417.066925 349.406464,419.661438 350.131927,423.091919 
	C352.343079,421.821808 354.636078,419.478699 357.085510,419.301819 
	C362.998779,418.874817 367.684662,417.617096 369.575928,411.156616 
	C369.866852,410.162781 372.082092,409.771118 373.354340,409.012024 
	C374.210785,408.500977 374.973907,407.833466 376.451630,406.736450 
	C373.725891,406.115997 371.931396,405.707520 369.935364,405.253174 
	C372.289368,400.487061 374.420044,396.173096 376.716003,391.524445 
	C375.895386,390.849243 374.578369,390.208710 374.051270,389.168091 
	C373.727692,388.529205 374.741211,386.400574 374.937286,386.429138 
	C380.608917,387.256134 379.394348,384.061615 379.244843,380.360535 
	C379.043854,375.385651 377.788849,369.721191 383.000000,366.000000 
	C384.227081,370.453644 385.454193,374.907257 386.569702,379.902313 
	C381.794128,385.476532 382.945892,390.292908 387.000000,395.001221 
	C386.333344,401.356110 385.666687,407.710999 384.684784,414.698975 
	C383.913055,417.888062 383.456543,420.444031 383.000000,423.000000 
M285.447754,416.924957 
	C286.393036,414.167725 287.338287,411.410461 288.411163,408.280945 
	C288.540253,408.302948 289.307678,408.485107 290.085205,408.555603 
	C291.704102,408.702362 293.328369,408.790009 294.950378,408.901947 
	C294.815338,406.951202 294.839081,404.971649 294.492310,403.059326 
	C294.239532,401.665283 293.346771,400.397034 293.005127,399.007355 
	C292.226593,395.840698 291.324005,393.101624 287.043884,394.391754 
	C286.321655,394.609436 285.229736,394.123932 284.492401,393.666870 
	C282.548187,392.461578 280.854309,390.745819 278.791748,389.859283 
	C273.884857,387.750214 268.923523,385.995056 265.304962,381.602814 
	C264.578949,380.721619 261.553772,381.158234 259.875641,381.771881 
	C257.315247,382.708160 254.111954,386.063110 252.742538,385.358307 
	C246.734009,382.265900 246.111053,386.752808 243.829163,390.503601 
	C248.678116,390.763519 249.167023,392.873077 248.190002,396.845703 
	C246.918930,402.013763 249.464951,405.520508 254.476852,408.174683 
	C255.897095,408.926819 256.833435,410.592712 258.060455,411.913513 
	C256.421478,412.873840 255.333282,413.511444 253.861343,414.373871 
	C256.370575,415.188019 258.117706,415.754852 259.864807,416.321716 
	C258.475555,417.827881 257.086304,419.334045 255.412582,421.148651 
	C257.423523,424.351196 253.025757,431.038788 261.402832,431.825104 
	C260.510651,433.121002 260.153381,434.251831 259.448669,434.543671 
	C257.652771,435.287476 254.852570,435.493744 256.463196,438.210724 
	C257.208893,439.468689 259.799957,439.683136 261.590607,440.258057 
	C263.683502,440.929993 265.815887,441.478973 267.931122,442.081329 
	C267.769928,442.644653 267.608765,443.207977 267.447571,443.771301 
	C266.258545,443.569275 264.774933,442.826752 263.943054,443.280121 
	C262.313812,444.168091 260.669098,445.493042 259.721222,447.055847 
	C258.323914,449.359650 260.300629,450.003540 263.071838,448.885681 
	C266.747040,450.222382 269.436279,451.091583 272.039001,452.169617 
	C277.607086,454.475922 275.731232,449.123932 277.222412,447.231567 
	C281.175842,442.214355 280.473816,436.130280 279.672272,430.736938 
	C278.781403,424.742218 281.788422,421.327026 285.447754,416.924957 
M348.489471,432.769562 
	C349.326630,424.638702 345.331482,416.555389 339.824402,415.342987 
	C339.072357,416.922791 338.356445,418.537354 337.548370,420.104401 
	C334.590576,425.840240 333.749420,431.762390 336.014679,437.924072 
	C336.384033,438.928772 337.498505,440.661896 337.649902,440.597778 
	C341.405426,439.006958 345.098633,437.260284 348.727600,435.394836 
	C349.043518,435.232391 348.839294,434.058075 348.489471,432.769562 
M340.418915,457.897522 
	C339.380859,456.991028 338.342804,456.084564 337.304749,455.178101 
	C336.636749,456.212524 335.690704,457.166412 335.362671,458.299225 
	C334.799347,460.244598 334.621735,462.301605 334.066315,465.590088 
	C336.536957,462.952698 338.602356,460.747894 340.418915,457.897522 
M355.770599,427.487427 
	C355.677124,426.451874 355.583649,425.416290 355.490173,424.380737 
	C354.715912,424.690582 353.941650,425.000397 353.167419,425.310242 
	C353.816833,426.137390 354.466248,426.964539 355.770599,427.487427 
M353.667267,436.664246 
	C353.803497,435.866608 353.939758,435.068939 354.075989,434.271301 
	C353.235443,434.459778 352.394867,434.648254 351.554321,434.836731 
	C352.043121,435.376770 352.531921,435.916840 353.667267,436.664246 
M372.175446,415.667633 
	C372.148071,414.882904 372.120728,414.098145 372.093384,413.313416 
	C371.527313,413.462372 370.961273,413.611328 370.395203,413.760254 
	C370.762909,414.448059 371.130615,415.135864 372.175446,415.667633 
M255.352951,377.074310 
	C254.766190,377.420258 254.179443,377.766205 253.592682,378.112122 
	C254.096985,378.379944 254.601303,378.647797 255.105606,378.915619 
	C255.404877,378.351959 255.704147,377.788269 255.352951,377.074310 
M222.798279,389.392548 
	C222.794067,389.786102 222.789856,390.179688 222.785645,390.573242 
	C222.948959,390.574768 223.254257,390.587280 223.255112,390.576263 
	C223.285339,390.184631 223.287064,389.790833 222.798279,389.392548 
z"/>
<path fill="#FEFAF6" opacity="1.000000" stroke="none" 
	d="
M357.831116,341.275055 
	C362.987762,348.347229 365.587616,355.850433 362.157959,364.564240 
	C357.453461,376.517120 344.345032,382.211182 332.666199,377.261719 
	C321.066956,372.345917 315.614929,358.413483 320.917664,347.238739 
	C326.327637,335.837982 339.979767,331.289062 351.402008,337.130096 
	C353.021423,337.958252 354.504517,339.053070 356.409393,340.088867 
	C356.768097,340.153290 356.809387,340.132050 356.863525,340.409180 
	C357.236053,340.854187 357.554382,341.022125 357.859772,341.209961 
	C357.846802,341.229919 357.831116,341.275055 357.831116,341.275055 
z"/>
<path fill="#EB6022" opacity="1.000000" stroke="none" 
	d="
M383.140625,365.680725 
	C377.788849,369.721191 379.043854,375.385651 379.244843,380.360535 
	C379.394348,384.061615 380.608917,387.256134 374.937286,386.429138 
	C374.741211,386.400574 373.727692,388.529205 374.051270,389.168091 
	C374.578369,390.208710 375.895386,390.849243 376.716003,391.524445 
	C374.420044,396.173096 372.289368,400.487061 369.935364,405.253174 
	C371.931396,405.707520 373.725891,406.115997 376.451630,406.736450 
	C374.973907,407.833466 374.210785,408.500977 373.354340,409.012024 
	C372.082092,409.771118 369.866852,410.162781 369.575928,411.156616 
	C367.684662,417.617096 362.998779,418.874817 357.085510,419.301819 
	C354.636078,419.478699 352.343079,421.821808 350.131927,423.091919 
	C349.406464,419.661438 348.578918,417.066925 348.390289,414.426758 
	C348.246765,412.418549 348.274841,409.876465 349.360962,408.415009 
	C351.369141,405.712860 351.286530,403.849915 349.137848,401.406799 
	C348.502472,400.684387 348.548340,398.397980 349.209900,397.659760 
	C352.910889,393.529663 357.032867,389.777588 360.747437,385.658630 
	C364.773468,381.194244 364.639709,378.741364 360.377991,377.005768 
	C362.834808,368.707489 365.014648,360.101746 370.609619,353.061310 
	C374.099609,348.669739 379.288361,349.321686 381.685242,354.442078 
	C383.288727,357.867676 386.315247,361.209625 383.140625,365.680725 
z"/>
<path fill="#EB6022" opacity="1.000000" stroke="none" 
	d="
M348.919556,382.619507 
	C349.097473,383.484253 349.225708,383.964600 349.287201,384.453400 
	C349.569397,386.696655 350.854370,390.044861 349.880676,390.946808 
	C348.108917,392.588074 345.491852,394.990143 342.169037,392.365234 
	C340.935944,391.391144 338.699799,391.686798 337.555145,391.504425 
	C334.573792,393.646210 331.942047,395.536835 329.310303,397.427490 
	C328.863464,397.017365 328.416626,396.607239 327.969757,396.197144 
	C329.312805,393.390747 330.655823,390.584351 331.999420,387.388977 
	C334.777618,381.895752 343.208344,379.512085 348.919556,382.619507 
z"/>
<path fill="#E95F23" opacity="1.000000" stroke="none" 
	d="
M356.746277,340.161560 
	C356.151398,339.116180 355.843475,337.613312 354.957275,337.090332 
	C351.900879,335.286530 351.410339,332.960693 353.938751,330.797974 
	C356.347046,328.738007 358.865936,325.372314 362.832458,328.356354 
	C365.195312,330.133911 367.530212,331.948608 369.539703,334.529083 
	C365.285309,336.964905 363.792969,342.116028 358.188843,341.216003 
	C357.831116,341.275055 357.846802,341.229919 357.788300,340.943970 
	C357.423004,340.482727 357.116180,340.307373 356.809387,340.132050 
	C356.809387,340.132050 356.768097,340.153290 356.746277,340.161560 
z"/>
<path fill="#EB6022" opacity="1.000000" stroke="none" 
	d="
M387.375305,394.953369 
	C382.945892,390.292908 381.794128,385.476532 386.729065,380.221863 
	C389.803284,383.390778 390.260620,392.472198 387.375305,394.953369 
z"/>
<path fill="#EB6022" opacity="1.000000" stroke="none" 
	d="
M339.374023,470.995697 
	C339.000000,469.130676 339.000000,467.260101 339.000000,464.640869 
	C341.269348,465.532928 342.555542,466.038513 343.841736,466.544128 
	C343.794586,466.099365 343.747437,465.654572 343.700317,465.209808 
	C345.886017,464.803284 348.071716,464.396729 350.628662,463.995117 
	C347.249329,466.330078 343.498718,468.660126 339.374023,470.995697 
z"/>
<path fill="#EB6022" opacity="1.000000" stroke="none" 
	d="
M383.315247,422.833984 
	C383.456543,420.444031 383.913055,417.888062 384.684814,415.166046 
	C384.543488,417.556000 384.086975,420.111969 383.315247,422.833984 
z"/>
<path fill="#EB6022" opacity="1.000000" stroke="none" 
	d="
M366.295837,450.858643 
	C365.753815,447.277893 367.014771,444.863861 371.604431,445.000580 
	C370.194794,446.905365 368.393250,448.810730 366.295837,450.858643 
z"/>
<path fill="#EA6327" opacity="1.000000" stroke="none" 
	d="
M285.204468,417.211121 
	C281.788422,421.327026 278.781403,424.742218 279.672272,430.736938 
	C280.473816,436.130280 281.175842,442.214355 277.222412,447.231567 
	C275.731232,449.123932 277.607086,454.475922 272.039001,452.169617 
	C269.436279,451.091583 266.747040,450.222382 263.071838,448.885681 
	C260.300629,450.003540 258.323914,449.359650 259.721222,447.055847 
	C260.669098,445.493042 262.313812,444.168091 263.943054,443.280121 
	C264.774933,442.826752 266.258545,443.569275 267.447571,443.771301 
	C267.608765,443.207977 267.769928,442.644653 267.931122,442.081329 
	C265.815887,441.478973 263.683502,440.929993 261.590607,440.258057 
	C259.799957,439.683136 257.208893,439.468689 256.463196,438.210724 
	C254.852570,435.493744 257.652771,435.287476 259.448669,434.543671 
	C260.153381,434.251831 260.510651,433.121002 261.402832,431.825104 
	C253.025757,431.038788 257.423523,424.351196 255.412582,421.148651 
	C257.086304,419.334045 258.475555,417.827881 259.864807,416.321716 
	C258.117706,415.754852 256.370575,415.188019 253.861343,414.373871 
	C255.333282,413.511444 256.421478,412.873840 258.060455,411.913513 
	C256.833435,410.592712 255.897095,408.926819 254.476852,408.174683 
	C249.464951,405.520508 246.918930,402.013763 248.190002,396.845703 
	C249.167023,392.873077 248.678116,390.763519 243.829163,390.503601 
	C246.111053,386.752808 246.734009,382.265900 252.742538,385.358307 
	C254.111954,386.063110 257.315247,382.708160 259.875641,381.771881 
	C261.553772,381.158234 264.578949,380.721619 265.304962,381.602814 
	C268.923523,385.995056 273.884857,387.750214 278.791748,389.859283 
	C280.854309,390.745819 282.548187,392.461578 284.492401,393.666870 
	C285.229736,394.123932 286.321655,394.609436 287.043884,394.391754 
	C291.324005,393.101624 292.226593,395.840698 293.005127,399.007355 
	C293.346771,400.397034 294.239532,401.665283 294.492310,403.059326 
	C294.839081,404.971649 294.815338,406.951202 294.950378,408.901947 
	C293.328369,408.790009 291.704102,408.702362 290.085205,408.555603 
	C289.307678,408.485107 288.540253,408.302948 288.411163,408.280945 
	C287.338287,411.410461 286.393036,414.167725 285.204468,417.211121 
z"/>
<path fill="#EB6022" opacity="1.000000" stroke="none" 
	d="
M348.683075,433.061646 
	C348.839294,434.058075 349.043518,435.232391 348.727600,435.394836 
	C345.098633,437.260284 341.405426,439.006958 337.649902,440.597778 
	C337.498505,440.661896 336.384033,438.928772 336.014679,437.924072 
	C333.749420,431.762390 334.590576,425.840240 337.548370,420.104401 
	C338.356445,418.537354 339.072357,416.922791 339.824402,415.342987 
	C345.331482,416.555389 349.326630,424.638702 348.683075,433.061646 
z"/>
<path fill="#EB6022" opacity="1.000000" stroke="none" 
	d="
M340.543335,458.220306 
	C338.602356,460.747894 336.536957,462.952698 334.066315,465.590088 
	C334.621735,462.301605 334.799347,460.244598 335.362671,458.299225 
	C335.690704,457.166412 336.636749,456.212524 337.304749,455.178101 
	C338.342804,456.084564 339.380859,456.991028 340.543335,458.220306 
z"/>
<path fill="#EB6022" opacity="1.000000" stroke="none" 
	d="
M355.443146,427.639557 
	C354.466248,426.964539 353.816833,426.137390 353.167419,425.310242 
	C353.941650,425.000397 354.715912,424.690582 355.490173,424.380737 
	C355.583649,425.416290 355.677124,426.451874 355.443146,427.639557 
z"/>
<path fill="#EB6022" opacity="1.000000" stroke="none" 
	d="
M353.343994,436.560577 
	C352.531921,435.916840 352.043121,435.376770 351.554321,434.836731 
	C352.394867,434.648254 353.235443,434.459778 354.075989,434.271301 
	C353.939758,435.068939 353.803497,435.866608 353.343994,436.560577 
z"/>
<path fill="#EB6022" opacity="1.000000" stroke="none" 
	d="
M371.836884,415.745667 
	C371.130615,415.135864 370.762909,414.448059 370.395203,413.760254 
	C370.961273,413.611328 371.527313,413.462372 372.093384,413.313416 
	C372.120728,414.098145 372.148071,414.882904 371.836884,415.745667 
z"/>
<path fill="#EA6327" opacity="1.000000" stroke="none" 
	d="
M255.678192,377.149475 
	C255.704147,377.788269 255.404877,378.351959 255.105606,378.915619 
	C254.601303,378.647797 254.096985,378.379944 253.592682,378.112122 
	C254.179443,377.766205 254.766190,377.420258 255.678192,377.149475 
z"/>
<path fill="#EA6327" opacity="1.000000" stroke="none" 
	d="
M223.045532,389.394928 
	C223.287064,389.790833 223.285339,390.184631 223.255112,390.576263 
	C223.254257,390.587280 222.948959,390.574768 222.785645,390.573242 
	C222.789856,390.179688 222.794067,389.786102 223.045532,389.394928 
z"/>
<path fill="#EA6327" opacity="1.000000" stroke="none" 
	d="
M356.863525,340.409180 
	C357.116180,340.307373 357.423004,340.482727 357.801270,340.924042 
	C357.554382,341.022125 357.236053,340.854187 356.863525,340.409180 
z"/>
</svg>