<?xml version="1.0" standalone="no"?>
<!DOCTYPE svg PUBLIC "-//W3C//DTD SVG 20010904//EN"
 "http://www.w3.org/TR/2001/REC-SVG-20010904/DTD/svg10.dtd">
<svg version="1.0" xmlns="http://www.w3.org/2000/svg"
 width="530.000000pt" height="530.000000pt" viewBox="0 0 530.000000 530.000000"
 preserveAspectRatio="xMidYMid meet">

<g transform="translate(0.000000,530.000000) scale(0.100000,-0.100000)"
fill="#000000" stroke="none">
<path d="M2837 4243 c3 -241 2 -549 -2 -685 l-7 -248 -269 0 -269 0 0 -505 c0
-278 2 -505 4 -505 4 0 98 124 577 759 l186 246 428 3 c236 1 433 -2 437 -6 9
-9 -42 -74 -595 -776 -164 -208 -301 -384 -304 -392 -3 -7 72 -122 168 -256
95 -134 191 -270 214 -303 23 -33 119 -168 212 -300 93 -132 198 -280 233
-330 100 -142 90 -135 190 -135 140 0 244 42 324 130 73 81 37 -46 442 1550
41 162 80 312 85 333 l10 37 97 0 c122 0 162 11 201 56 l31 35 0 134 c0 130
-1 134 -27 165 -14 17 -37 36 -51 41 -14 6 -281 12 -616 15 l-591 5 -7 136
c-14 258 -65 470 -158 658 -65 132 -154 252 -244 328 -179 153 -418 247 -631
247 l-73 0 5 -437z m1275 -1804 c125 -27 240 -115 296 -226 99 -196 48 -425
-123 -555 -83 -63 -144 -82 -265 -82 -98 -1 -109 1 -173 31 -232 110 -325 371
-212 599 87 178 284 274 477 233z"/>
<path d="M264 3301 c-171 -9 -194 -35 -194 -218 0 -190 28 -215 249 -223 l144
-5 158 -625 c87 -344 188 -744 225 -890 73 -291 98 -353 171 -421 24 -22 74
-55 111 -72 66 -31 70 -32 235 -35 l167 -4 0 1251 0 1251 -577 -2 c-318 -1
-628 -4 -689 -7z"/>
<path d="M2406 1432 l-116 -140 0 -241 0 -241 376 0 376 0 -21 33 c-11 17
-125 185 -253 371 -128 187 -236 344 -239 349 -3 4 -58 -54 -123 -131z"/>
</g>
</svg>
